<?xml version="1.0" standalone="no"?><!DOCTYPE svg PUBLIC "-//W3C//DTD SVG 1.1//EN" "http://www.w3.org/Graphics/SVG/1.1/DTD/svg11.dtd"><svg class="icon" width="16px" height="16.00px" viewBox="0 0 1024 1024" version="1.1" xmlns="http://www.w3.org/2000/svg"><path d="M945.03936 397.0048v156.02688l32.843093 32.853333-68.488533 71.273814-69.341867-69.1712 47.479467-43.168427v-123.183787c-201.454933 83.063467-266.0352 108.885333-310.71232 129.024s-76.8512 20.053333-121.173333 3.355307-255.25248-93.668693-359.983787-143.80032c-69.891413-33.450667-74.3936-54.654293 1.204907-83.03616 98.645333-37.481813 261.717333-97.501867 348.16-130.26304 51.165867-20.698453 78.219947-32 125.184-8.393387 83.862187 34.624853 275.47648 106.530133 370.75968 145.8688 82.944 36.201813 27.183787 48.10752 4.07552 62.614187z m-358.495573 215.42912c48.715093-20.10112 114.408107-53.336747 186.026666-84.026027v246.36416s-92.63104 98.542933-255.47776 98.542934c-175.373653 0-270.097067-98.542933-270.097066-98.542934v-229.952853c55.278933 22.528 117.36064 41.90208 192.484693 67.61472 46.301867 16.47616 105.055573 22.186667 147.060053 0z"  /></svg>