<?xml version="1.0" standalone="no"?><!DOCTYPE svg PUBLIC "-//W3C//DTD SVG 1.1//EN" "http://www.w3.org/Graphics/SVG/1.1/DTD/svg11.dtd"><svg class="icon" width="16px" height="16.00px" viewBox="0 0 1024 1024" version="1.1" xmlns="http://www.w3.org/2000/svg"><path d="M512 0v409.6h409.6v563.2a51.2 51.2 0 0 1-51.2 51.2H153.6a51.2 51.2 0 0 1-51.2-51.2V51.2a51.2 51.2 0 0 1 51.2-51.2h358.4zM204.8 153.6v102.4h204.8V153.6H204.8z m0 204.8v102.4h204.8V358.4H204.8z m0 204.8v102.4h614.4v-102.4H204.8z m0 204.8v102.4h614.4v-102.4H204.8zM614.2464 26.624a10.24 10.24 0 0 1 17.4592-7.2704l272.1792 270.336a10.24 10.24 0 0 1-7.2192 17.5104l-272.1792 0.2048a10.24 10.24 0 0 1-10.24-10.24V26.624z" /></svg>