<?xml version="1.0" standalone="no"?><!DOCTYPE svg PUBLIC "-//W3C//DTD SVG 1.1//EN" "http://www.w3.org/Graphics/SVG/1.1/DTD/svg11.dtd"><svg class="icon" width="16px" height="16.00px" viewBox="0 0 1024 1024" version="1.1" xmlns="http://www.w3.org/2000/svg"><path d="M131.651412 880.990912l25.787317-123.772978-44.667316-44.667315-39.018665 225.811955c-2.060939 11.929704 8.330736 22.294772 20.255323 20.202111l225.281882-39.537481-13.571086-13.529132-24.560372-24.602327-129.598661 20.926611c-12.103666 1.954515-22.408359-8.829086-19.908422-20.831444zM912.121933 781.236977L756.454548 927.397848c-17.517979 16.448624-45.054125 15.58086-61.502749-1.937118L109.939925 302.399261c-16.448624-17.517979-15.58086-45.054125 1.937118-61.502749L267.545452 94.735641c17.517979-16.448624 45.054125-15.58086 61.502749 1.937119l585.011874 623.061468c16.447601 17.517979 15.58086 45.054125-1.938142 61.502749z"  /><path d="M790.359752 94.949512s-29.514197-29.514197-59.029418 0L128.632659 697.648211l-15.360849 15.360849 167.845752 167.887708 24.602328 24.602328 13.612019 13.612019 29.43131-29.43131-0.041956-0.041955 470.984864-470.984865 0.041956 0.041956 29.431309-29.43131-0.041955-0.041955 88.252996-88.251973c29.514197-29.514197 0-59.029418 0-59.029419L790.359752 94.949512zM319.208089 860.123652L172.217317 713.133903 643.202181 242.107083l146.990772 146.990773-470.984864 471.025796z m500.416174-500.416174L672.63349 212.716706l88.251974-88.252996 146.990772 146.990772-88.251973 88.252996z"  /><path d="M142.349055 710.455911l496.584916-493.53751L815.632345 381.430222 317.52475 887.155309z"  /></svg>